PathFileType	4	(x/y/z)	S10_P20_T16
DataRate	CameraRate	NumFrames	NumMarkers	Units	OrigDataRate	OrigDataStartFrame	OrigNumFrames
240	240	5	51	mm	240	50	398
Frame#	Time	Sternum			R.Acromium			L.Acromium			Top.Head			R.ASIS			L.ASIS			R.PSIS			L.PSIS			R.Great.Tro			L.Great.Tro			R.Iliac.Crest			L.Iliac.Crest			V.Sacral			R.Thigh.Upper.Post			R.Thigh.Lower.Ant			R.Thigh.Lower.Post			R.Thigh.Upper.Ant			R.Knee.Lat			R.Knee.Med			R.Shank.Upper.Post			R.Shank.Lower.Ant			R.Shank.Lower.Post			R.Shank.Upper.Ant			R.Ankle.Lat			R.Ankle.Med			R.Heel.Upper			R.Heel.Med			R.Heel.Lat			R.Toe.Lat			R.Toe.Med			R.Toe.Tip			L.Thigh.Upper.Post			L.Thigh.Lower.Ant			L.Thigh.Lower.Post			L.Thigh.Upper.Ant			L.Knee.Lat			L.Knee.Med			L.Shank.Upper.Post			L.Shank.Lower.Ant			L.Shank.Lower.Post			L.Shank.Upper.Ant			L.Ankle.Lat			L.Ankle.Med			L.Heel.Upper			L.Heel.Med			L.Heel.Lat			L.Toe.Lat			L.Toe.Med			L.Toe.Tip			Cervical.Spine			Back			
		X1	Y1	Z1	X2	Y2	Z2	X3	Y3	Z3	X4	Y4	Z4	X5	Y5	Z5	X6	Y6	Z6	X7	Y7	Z7	X8	Y8	Z8	X9	Y9	Z9	X10	Y10	Z10	X11	Y11	Z11	X12	Y12	Z12	X13	Y13	Z13	X14	Y14	Z14	X15	Y15	Z15	X16	Y16	Z16	X17	Y17	Z17	X18	Y18	Z18	X19	Y19	Z19	X20	Y20	Z20	X21	Y21	Z21	X22	Y22	Z22	X23	Y23	Z23	X24	Y24	Z24	X25	Y25	Z25	X26	Y26	Z26	X27	Y27	Z27	X28	Y28	Z28	X29	Y29	Z29	X30	Y30	Z30	X31	Y31	Z31	X32	Y32	Z32	X33	Y33	Z33	X34	Y34	Z34	X35	Y35	Z35	X36	Y36	Z36	X37	Y37	Z37	X38	Y38	Z38	X39	Y39	Z39	X40	Y40	Z40	X41	Y41	Z41	X42	Y42	Z42	X43	Y43	Z43	X44	Y44	Z44	X45	Y45	Z45	X46	Y46	Z46	X47	Y47	Z47	X48	Y48	Z48	X49	Y49	Z49	X50	Y50	Z50	X51	Y51	Z51	

50	0.20417	-951.75	1282.1	288.25	-1085	1444.4	433.4	-1072.4	1465.1	134.56	-1092.3	1757.9	295.78	-1011.9	1007	399.88	-996.8	1029.2	169.46	-1212	1032.9	300.68	-1202.6	1043.5	220.6	-1090.6	928.04	467.21	-1055.3	969.61	105.8	-1114.1	1087.7	440.21	NaN	NaN	NaN	-1230.6	1004.3	261.02	-1034.6	722.91	476.31	-961.02	656.1	446.95	-1022.2	634.47	473.3	-971.8	747.64	447.54	-1010	509.48	441.66	-984.78	506.09	310.66	-1200.9	398.02	429.19	-1205.6	306.38	418.74	-1257.1	347.56	422.8	-1145.6	354.66	427.85	-1319.6	257.27	405.04	-1299.3	257.4	325.84	-1378.1	282.83	352.79	-1395.1	264.68	323.73	-1393.1	268.98	383.64	-1340.9	108.41	428.37	NaN	NaN	NaN	-1269.5	48.761	362.61	-1068.2	683.17	119.08	-986.37	613.63	149.16	-1058.8	590.66	144.45	-989.79	700.38	125.04	-1016.7	510.41	161.96	-1011.5	515.24	290.25	-1098.1	306.87	159.22	-1047.4	210.83	181.93	-1106	229.61	170.08	-1037.9	287.34	169.94	-1097.3	111.13	183.98	-1085.8	117.12	272.56	-1169.4	77.683	227.89	-1161.2	45.372	260.36	-1163	49.531	195.99	-984.57	42	163.54	-963.26	44.164	275.59	-904.65	55.157	227.54	-1152.6	1501.5	291.35	-1243.1	1294	279.09
51	0.20833	-946.79	1282.6	288.74	-1080.6	1444.8	433.36	-1066.7	1465.7	134.55	-1086.9	1758.5	295.77	-1007.2	1007.8	399.6	-991.74	1029.6	169.17	-1207.1	1033.6	300.18	-1197.6	1044.1	220.11	-1085.8	929.06	467.01	-1050.7	969.78	105.64	-1109.3	1088.5	439.78	NaN	NaN	NaN	-1225.7	1005	260.55	-1027.8	724.35	476.33	-953.58	658.29	447.14	-1014.6	636.05	473.39	-965.26	749.68	447.49	-1000.8	511.17	441.64	-975.71	508.07	310.53	-1191.1	398.32	428.81	-1195.9	306.15	418.61	-1246.7	347.4	422.43	-1135.1	355.55	427.62	-1308.3	256.58	404.47	-1288.3	256.63	325.54	-1368.9	280.93	351.76	-1384.7	261.82	322.92	-1383.1	266.52	382.93	-1326.6	107.92	429.15	NaN	NaN	NaN	-1254.3	49.178	364.17	-1065.4	683.53	119.03	-984.06	613.44	148.97	-1056.6	590.96	144.37	-986.9	700.2	124.84	-1015.1	510.41	161.82	-1009.9	515.13	290.15	-1097.3	307.15	159.29	-1047	210.85	181.89	-1105.2	229.97	170.09	-1037.2	287.38	169.85	-1097.3	111.23	184.11	-1085.5	117.32	272.65	-1169.2	77.898	228.01	-1161.1	45.562	260.45	-1162.9	49.74	196.08	-984.52	41.971	163.53	-963.16	44.049	275.61	-904.55	54.911	227.56	-1147.6	1502.1	290.99	-1238	1294.6	278.11
52	0.2125	-941.83	1283.2	289.22	-1076.2	1445.2	433.33	-1061	1466.3	134.56	-1081.5	1759.2	295.78	-1002.4	1008.6	399.3	-986.72	1030	168.87	-1202.1	1034.4	299.72	-1192.6	1044.8	219.65	-1080.9	930.13	466.83	-1046.3	969.95	105.49	-1104.6	1089.4	439.35	NaN	NaN	NaN	-1220.9	1005.8	260.12	-1021	725.82	476.34	-946.19	660.5	447.29	-1007	637.66	473.46	-958.75	751.75	447.42	-991.7	512.88	441.58	-966.81	510.09	310.35	-1181.3	398.44	428.41	-1185.8	305.87	418.48	-1236.1	346.99	422.06	-1124.7	356.31	427.34	-1296.9	255.61	403.89	-1277.1	255.61	325.21	-1359.2	278.66	350.72	-1374.1	258.63	322.07	-1373.1	263.71	382.2	-1312.1	107.21	429.93	NaN	NaN	NaN	-1238.7	49.523	365.78	-1062.7	683.91	119.01	-981.81	613.27	148.8	-1054.6	591.29	144.3	-984.04	700.03	124.67	-1013.7	510.43	161.67	-1008.3	515.02	290.06	-1096.5	307.43	159.36	-1046.6	210.92	181.86	-1104.5	230.35	170.12	-1036.5	287.45	169.75	-1097.4	111.27	184.27	-1085.3	117.53	272.75	-1169.1	78.119	228.14	-1161.1	45.758	260.54	-1162.8	49.959	196.17	-984.47	41.941	163.53	-963.05	43.938	275.63	-904.44	54.668	227.58	-1142.5	1502.8	290.65	-1232.9	1295.3	277.13
53	0.21667	-936.88	1283.7	289.68	-1071.9	1445.7	433.31	-1055.3	1467	134.56	-1076.1	1759.9	295.8	-997.73	1009.5	398.99	-981.74	1030.5	168.56	-1197.2	1035.1	299.29	-1187.6	1045.4	219.22	-1076	931.23	466.66	-1041.8	970.12	105.36	-1099.8	1090.3	438.93	NaN	NaN	NaN	-1216	1006.5	259.74	-1014.2	727.33	476.34	-938.86	662.73	447.4	-999.41	639.31	473.51	-952.27	753.82	447.3	-982.69	514.62	441.49	-958.07	512.15	310.14	-1171.5	398.38	428	-1175.4	305.51	418.35	-1225.5	346.35	421.69	-1114.1	356.94	427.04	-1285.4	254.38	403.31	-1265.7	254.34	324.87	-1349.3	276.01	349.68	-1363.3	255.12	321.2	-1363	260.55	381.44	-1297.3	106.29	430.73	NaN	NaN	NaN	-1222.9	49.796	367.45	-1060	684.32	119	-979.61	613.12	148.64	-1052.5	591.65	144.24	-981.23	699.87	124.5	-1012.3	510.47	161.52	-1006.8	514.93	289.98	-1095.8	307.73	159.43	-1046.2	211.02	181.83	-1103.9	230.74	170.16	-1035.8	287.54	169.66	-1097.5	111.27	184.46	-1085	117.76	272.86	-1169	78.347	228.28	-1161	45.962	260.65	-1162.7	50.19	196.28	-984.43	41.909	163.53	-962.94	43.832	275.64	-904.33	54.431	227.59	-1137.4	1503.4	290.32	-1227.8	1296.1	276.17
54	0.22083	-931.92	1284.3	290.12	-1067.4	1446.1	433.28	-1049.6	1467.7	134.57	-1070.6	1760.7	295.84	-993.01	1010.4	398.67	-976.81	1030.9	168.26	-1192.2	1035.9	298.9	-1182.5	1046.1	218.83	-1071.1	932.35	466.5	-1037.4	970.3	105.25	-1095	1091.2	438.52	NaN	NaN	NaN	-1211.1	1007.3	259.4	-1007.4	728.86	476.32	-931.57	664.98	447.45	-991.86	640.99	473.55	-945.83	755.91	447.15	-973.78	516.36	441.35	-949.48	514.23	309.91	-1161.7	398.13	427.59	-1164.6	305.08	418.21	-1214.9	345.48	421.31	-1103.6	357.45	426.72	-1273.7	252.89	402.74	-1254.2	252.84	324.52	-1339	273	348.65	-1352.2	251.31	320.31	-1352.7	257.07	380.67	-1282.5	105.19	431.52	NaN	NaN	NaN	-1206.8	50	369.16	-1057.4	684.75	119.01	-977.47	612.98	148.5	-1050.5	592.04	144.2	-978.46	699.73	124.34	-1010.9	510.53	161.37	-1005.2	514.86	289.9	-1095.1	308.04	159.49	-1045.7	211.16	181.8	-1103.3	231.14	170.21	-1035.1	287.66	169.58	-1097.6	111.23	184.67	-1084.8	118.01	272.97	-1168.9	78.587	228.43	-1160.9	46.173	260.77	-1162.6	50.432	196.4	-984.39	41.877	163.54	-962.83	43.732	275.66	-904.22	54.198	227.6	-1132.4	1504.1	289.99	-1222.7	1296.8	275.23
